<svg width="14" height="24" viewBox="0 0 14 24" fill="none" xmlns="http://www.w3.org/2000/svg">
    <path d="M6.98942 8.80029V16.5561C6.95353 16.5506 6.91918 16.5371 6.88872 16.5163L2.05215 13.5022L0.0948635 12.2687C0.0705887 12.254 0.0474414 12.2374 0.0256348 12.2189C0.0256348 12.1725 0.0822765 12.1626 0.116891 12.1427L0.513383 11.9504L1.79726 11.3369L2.392 11.0484L3.58777 10.4814L4.5318 10.0272L5.82512 9.41041L6.47964 9.10204L6.92019 8.89314C6.93989 8.88798 6.95738 8.87604 6.96992 8.85923C6.98246 8.84242 6.98932 8.82168 6.98942 8.80029Z" fill="#92A5DA" />
    <path d="M14 12.2123C13.9497 12.2455 13.9087 12.2753 13.8678 12.2985L7.096 16.5196C7.06451 16.5426 7.0273 16.5553 6.98901 16.5561V8.80029C6.98942 8.82111 6.99602 8.84127 7.00787 8.85792C7.01973 8.87458 7.03625 8.8869 7.0551 8.89314L7.50823 9.1153L8.15961 9.42368L9.45293 10.0404L10.397 10.4947L11.5927 11.0617L12.1906 11.3502L13.4745 11.9636L13.871 12.1559C13.9056 12.1758 13.9465 12.1858 13.9622 12.2322C13.9906 12.2322 13.9937 12.1991 13.9874 12.1825L14 12.2123Z" fill="#6984CC" />
    <path d="M6.98896 8.68093C6.98896 8.71409 6.98896 8.75057 6.98896 8.78373V8.80031C6.98925 8.82083 6.9833 8.84092 6.97197 8.85763C6.96065 8.87433 6.94455 8.88678 6.92602 8.89315L6.47289 9.11531L5.81836 9.42369L4.52504 10.0404L3.58102 10.4947L2.38525 11.0617L1.79051 11.3502L0.512922 11.9636L0.11643 12.156C0.0818158 12.1759 0.0377612 12.1858 0.0251741 12.2322C-0.0314676 12.1991 0.0251741 12.1692 0.0251741 12.1394C0.11643 11.9736 0.210833 11.8078 0.305236 11.6453L2.94852 7.02632L5.61068 2.38411L6.91973 0.0828966C6.91973 0.0530538 6.94176 0.0099476 6.98581 0V8.68093H6.98896Z" fill="#C6D0EB" />
    <path d="M13.9563 12.2322C13.9563 12.1858 13.8996 12.1759 13.865 12.156L13.4685 11.9636L12.1846 11.3502L11.5867 11.0617L10.3815 10.4947L9.4375 10.0404L8.14418 9.42369L7.4928 9.11531L7.03967 8.89315C7.02082 8.88691 7.0043 8.87459 6.99245 8.85793C6.98059 8.84128 6.974 8.82112 6.97359 8.80031C6.9721 8.79489 6.9721 8.78914 6.97359 8.78373C6.97359 8.75057 6.97359 8.71409 6.97359 8.68093V3.11691C6.97359 2.10447 6.97359 1.09313 6.97359 0.0828966V0H6.98932H7.01135C7.01135 0.0198952 7.03023 0.0431062 7.04282 0.0630014L8.35502 2.35426L11.0172 6.99648L13.6573 11.6155C13.7517 11.778 13.8461 11.9471 13.9374 12.1095L13.9563 12.1361V12.1526C13.9563 12.1526 13.9846 12.2156 13.9563 12.2322Z" fill="#92A5DA" />
    <path d="M6.98937 17.9786L11.4798 15.1833L13.8997 13.6812L13.9657 13.6381C13.9553 13.6851 13.9337 13.7285 13.9028 13.7641L11.9109 16.7219L8.49352 21.8018L7.09321 23.8742L7.01139 23.9836C6.97049 23.9372 6.98937 23.8775 6.98937 23.8245V17.9786Z" fill="#92A5DA" />
    <path d="M6.98914 17.9786V23.8212C6.98914 23.8742 6.97026 23.9339 7.01117 23.9803C6.97026 24.0267 6.96082 23.9803 6.94823 23.9505C6.82551 23.7747 6.70593 23.599 6.58635 23.4199L3.93993 19.4906L2.08334 16.7285C1.40364 15.7205 0.724987 14.7136 0.047384 13.7078C0.0350806 13.6893 0.0284864 13.6673 0.0285035 13.6448L0.24563 13.7741L3.88958 16.0488L6.91991 17.9256L6.98914 17.9786Z" fill="#C6D0EB" />
</svg>